<svg xmlns="http://www.w3.org/2000/svg" width="144" height="140" fill="none" viewBox="0 0 144 140"><path d="M70.39 139.026c35.222 0 63.776-28.554 63.776-63.776 0-35.222-28.554-63.776-63.776-63.776-35.223 0-63.776 28.554-63.776 63.776 0 35.222 28.553 63.776 63.776 63.776z" fill="#F0F1F2"/><path d="M41.62 108.833h14.74L51 123.574h-4.02l-5.36-14.741zM85.842 108.833h14.74l-5.36 14.741h-4.02l-5.36-14.741z" fill="#9FA5AB"/><path d="M25.146 44.669h85.408c1.745 0 2.899 1.79 2.432 3.476l-9.164 33.189a4.662 4.662 0 0 1-3.913 3.378l-53.827 6.666-20.936-46.71z" fill="#B6BABF"/><path d="M125.19 107.847c-11.158 18.678-31.241 31.415-54.517 31.415-23.276 0-43.745-12.501-54.903-31.179l109.42-.236z" fill="#D2D5D9"/><path d="M39.886 37.397a4 4 0 0 1 4-4h19.747a4 4 0 0 1 4 4v22.012H41.886a2 2 0 0 1-2-2V37.397z" fill="#9FA5AB"/><path d="M39.886 35.397a2 2 0 0 1 2-2h23.747a2 2 0 0 1 2 2v9.272H39.886v-9.272z" fill="#828A91"/><path d="M48.99 131.377a7.37 7.37 0 1 0 0-14.74 7.37 7.37 0 0 0 0 14.74zM93.212 131.377a7.37 7.37 0 1 0 0-14.74 7.37 7.37 0 0 0 0 14.74z" fill="#0B614E"/><path d="M42.426 113.169c-2.709 0-5.455-1.272-7.6-3.341-2.603-2.513-4.16-6.102-4.16-9.601 0-.233.007-.46.022-.685.196-3.333 1.941-6.395 4.778-8.412l4.95-3.521-22.571-48.493L2.36 34.248a3.366 3.366 0 0 1-2.205-4.22 3.366 3.366 0 0 1 4.221-2.205l16.892 5.312c.903.286 1.64.933 2.04 1.79l24.377 52.376a3.368 3.368 0 0 1-1.099 4.16l-7.238 5.147c-1.15.82-1.88 2.061-1.956 3.325-.007.098-.007.196-.007.294 0 1.655.827 3.521 2.106 4.763.512.496 1.558 1.309 2.83 1.309h63.464c1.858 0 3.468 1.543 3.468 3.401 0 1.859-1.61 3.469-3.468 3.469h-63.36z" fill="#1A7F61"/><path d="m21.276 33.135-16.9-5.304a3.366 3.366 0 0 0-4.22 2.204 3.366 3.366 0 0 0 2.204 4.221l15.169 4.77a64.88 64.88 0 0 1 4.56-5.477 3.185 3.185 0 0 0-.813-.414z" fill="#1A7F61"/><path d="m46.26 61.221 3.592 23.603c.123.808.867 1.37 1.678 1.267l32.414-4.221a1.504 1.504 0 0 0 1.304-1.671L82.353 55.95a1.505 1.505 0 0 0-1.714-1.31l-33.112 4.866a1.505 1.505 0 0 0-1.268 1.715z" fill="#9FA5AB"/><path d="M92 26c0 14.36 11.641 26 26 26s26-11.64 26-26-11.641-26-26-26-26 11.64-26 26z" fill="#1A7F61"/><path d="m107.546 28.7 5.146 5.003c.765.744 2.01.744 2.775 0l12.99-12.63a1.762 1.762 0 0 0 0-2.544 1.884 1.884 0 0 0-2.618 0l-11.764 11.438-3.922-3.813a1.883 1.883 0 0 0-2.617 0 1.767 1.767 0 0 0 .01 2.545z" fill="#fff"/></svg>