<svg width="207" height="148" viewBox="0 0 207 148" fill="none" xmlns="http://www.w3.org/2000/svg"><path d="M183 74c0 40.885-33.115 74-74 74s-74-33.115-74-74S68.115 0 109 0s74 33.115 74 74Z" fill="#F0F1F2"/><g filter="url(#a)"><path d="M193.123 131H13.877C10.645 131 8 128.614 8 125.698V22.302C8 19.386 10.645 17 13.877 17h179.246c3.232 0 5.877 2.386 5.877 5.302v103.396c0 2.916-2.645 5.302-5.877 5.302Z" fill="#fff"/></g><path d="M184.308 65.857H122.6c-1.616 0-2.938-1.333-2.938-2.961v-29.61c0-1.63 1.322-2.962 2.938-2.962h61.708c1.616 0 2.938 1.333 2.938 2.961v29.61c0 1.63-1.322 2.962-2.938 2.962Z" fill="#E8E9EB"/><path d="M184.308 92.507H122.6c-1.616 0-2.938-.889-2.938-1.974v-19.74c0-1.086 1.322-1.975 2.938-1.975h61.708c1.616 0 2.938.889 2.938 1.974v19.74c0 1.086-1.322 1.975-2.938 1.975Z" fill="#7FBEC6"/><path d="M168.35 88.749h-.643l.643-7.004 1.931-1.038-1.931 8.042Zm10.04 0h.644l-.644-7.004-1.931-1.038 1.931 8.042Z" fill="#BF8563"/><path d="M180.063 74.74h-13.386v8.301h13.386v-8.3Z" fill="#D9942D"/><path d="M179.291 75.518h-11.842v6.744h11.842v-6.744Z" fill="#E9AF58"/><path d="M179.806 78.502h-12.872v.778h12.872v-.778Zm-5.149-1.167h-2.574c0-.285.232-.519.515-.519h1.544c.284 0 .515.234.515.52Zm0 3.631h-2.574c0-.285.232-.519.515-.519h1.544c.284 0 .515.234.515.52Z" fill="#D9942D"/><path d="M134.52 78.757a1.82 1.82 0 0 1 1.313-2.204 1.8 1.8 0 0 1 2.183 1.325 1.819 1.819 0 0 1-1.313 2.204 1.8 1.8 0 0 1-2.183-1.325Z" fill="#fff"/><path d="M133.385 76.752c-.17-.413-.221-.587-.535-.903l-.703-.706a.274.274 0 0 1 0-.386l.843-.85a.268.268 0 0 1 .382 0l.704.705c.312.315.486.368.894.54l3.061 1.24-3.418 3.45-1.228-3.09Z" fill="#6B7177"/><path d="M134.697 75.037a1.716 1.716 0 0 1-.621-.426l-1.226 1.237c.233.235.321.392.421.626l1.426-1.438Z" fill="#42474C"/><path d="m134.614 79.842 3.417-3.45 1.349.548a.146.146 0 0 1 .049.237l-4.039 4.077a.143.143 0 0 1-.235-.049l-.541-1.363Z" fill="#DE6A5A"/><path fill-rule="evenodd" clip-rule="evenodd" d="m132.611 76.465 2.501-2.524-.677-.681-2.501 2.524a6.935 6.935 0 0 0-2.004 4.883v6.765h.956v-6.765c0-1.576.62-3.087 1.725-4.202Z" fill="#DE6A5A"/><path d="M134.697 87.076a.337.337 0 0 0-.335-.338h-5.55a.337.337 0 0 0-.335.338v.448c0 .186.15.338.335.338h5.55a.337.337 0 0 0 .335-.338v-.448Z" fill="#6B7177"/><path d="M129.683 87.862h-.679c-.291 0-.527-.16-.527-.359v-.406c0-.198.236-.359.527-.359h.679c-.291 0-.527.16-.527.359v.406c0 .198.236.359.527.359Z" fill="#42474C"/><path d="M149.046 45.13h29.385c1.616 0 2.938-1.333 2.938-2.962v-2.96c0-1.63-1.322-2.962-2.938-2.962h-29.385c-1.616 0-2.938 1.333-2.938 2.961v2.961c0 1.629 1.322 2.961 2.938 2.961Zm-.473 14.632h29.384c1.616 0 2.939-1.332 2.939-2.961V53.84c0-1.629-1.323-2.961-2.939-2.961h-29.384c-1.617 0-2.939 1.332-2.939 2.96v2.962c0 1.629 1.322 2.961 2.939 2.961Zm-20.096-17.594h5.877c1.616 0 2.938-1.332 2.938-2.96 0-1.63-1.322-2.962-2.938-2.962h-5.877c-1.616 0-2.939 1.333-2.939 2.961 0 1.629 1.323 2.961 2.939 2.961Z" fill="#B6BABF"/><path d="M99.092 92.506H25.631c-1.616 0-2.939-1.332-2.939-2.961v-56.26c0-1.628 1.323-2.96 2.939-2.96h73.461c1.616 0 2.939 1.332 2.939 2.96v56.26c0 1.629-1.323 2.961-2.939 2.961Zm-22.038 20.727h5.877c1.616 0 2.938-1.333 2.938-2.961v-5.922c0-1.629-1.322-2.961-2.938-2.961h-5.877c-1.616 0-2.939 1.332-2.939 2.961v5.922c0 1.628 1.323 2.961 2.939 2.961Zm-17.631 0H65.3c1.616 0 2.939-1.333 2.939-2.961v-5.922c0-1.629-1.323-2.961-2.939-2.961h-5.877c-1.616 0-2.938 1.332-2.938 2.961v5.922c0 1.628 1.322 2.961 2.938 2.961Zm-17.631 0h5.877c1.616 0 2.939-1.333 2.939-2.961v-5.922c0-1.629-1.323-2.961-2.939-2.961h-5.877c-1.616 0-2.938 1.332-2.938 2.961v5.922c0 1.628 1.322 2.961 2.938 2.961Z" fill="#E8E9EB"/><path d="M30.039 108.793v-2.961a1.468 1.468 0 0 0-2.351-1.184l-1.91 1.48c-.735.593-.735 1.777 0 2.369l1.91 1.481c1.028.74 2.35 0 2.35-1.185Zm64.646-2.961v2.961c0 1.185 1.322 1.925 2.35 1.185l1.91-1.481c.735-.592.735-1.776 0-2.369l-1.91-1.48c-1.028-.74-2.35 0-2.35 1.184Z" fill="#B6BABF"/><path d="M22.692 71.78v17.766c0 1.628 1.323 2.96 2.939 2.96h73.461c1.616 0 2.939-1.332 2.939-2.96V71.779H22.692Z" fill="#E8E9EB"/><path d="M74.115 80.662H50.608v2.961h23.507v-2.96Z" fill="#975D48"/><path d="M46.2 92.507h2.938l7.347-23.689h-2.939L46.2 92.507Z" fill="#975D48"/><path d="M75.585 92.507h2.938l-7.346-23.689h-2.939l7.347 23.689ZM63.83 68.818h-2.938v23.689h2.939V68.818Z" fill="#BF8563"/><path d="M58.541 47.054c-4.113-3.997-10.872-3.108-13.81 1.777l-2.792 4.59c-.147.296-.294.74-.294 1.184 0 1.333 1.029 2.369 2.351 2.369h10.872v14.805H75.88c2.79 0 4.848-2.517 4.26-5.33l-1.175-5.922c-.441-2.072-2.204-3.553-4.261-3.553h-.588c-3.379 0-7.199-1.628-8.815-3.257l-6.759-6.663Z" fill="#fff"/><path d="M67.21 70.3c-2.057 0-3.967-1.481-4.26-3.554l-1.176-6.218c-.44-2.073-2.204-3.553-4.26-3.553H43.26v5.922c0 4.885 3.967 8.883 8.816 8.883h23.948c1.323 0 2.498-.592 3.233-1.48H67.21Z" fill="#D2D5D9"/><path d="M153.499 77.11a.592.592 0 0 0-.592.592v2.368h-2.369a.592.592 0 0 0 0 1.185h2.369v2.369a.592.592 0 1 0 1.184 0v-2.37h2.369a.592.592 0 0 0 0-1.184h-2.369v-2.368a.592.592 0 0 0-.592-.593Z" fill="#5C5F62"/><defs><filter id="a" x=".597" y="11.078" width="205.805" height="128.805" filterUnits="userSpaceOnUse" color-interpolation-filters="sRGB"><feFlood flood-opacity="0" result="BackgroundImageFix"/><feColorMatrix in="SourceAlpha" values="0 0 0 0 0 0 0 0 0 0 0 0 0 0 0 0 0 0 127 0" result="hardAlpha"/><feOffset dy="1.481"/><feGaussianBlur stdDeviation="3.701"/><feColorMatrix values="0 0 0 0 0 0 0 0 0 0 0 0 0 0 0 0 0 0 0.3 0"/><feBlend in2="BackgroundImageFix" result="effect1_dropShadow_7364_173688"/><feBlend in="SourceGraphic" in2="effect1_dropShadow_7364_173688" result="shape"/></filter></defs></svg>