<svg xmlns="http://www.w3.org/2000/svg" width="224" height="166" fill="none"><g filter="url(#a)"><path d="M198 18H26a4 4 0 0 0-4 4v122a4 4 0 0 0 4 4h172a4 4 0 0 0 4-4V22a4 4 0 0 0-4-4Z" fill="#fff"/></g><path d="M198 18H26a4 4 0 0 0-4 4v82h180V22a4 4 0 0 0-4-4Z" fill="#7FBEC6"/><path d="M202 80H22v24h180V80Z" fill="#5BA7B1"/><mask id="b" maskUnits="userSpaceOnUse" x="109" y="18" width="74" height="83"><path fill="#D9D9D9" d="M109 18h74v83h-74z"/></mask><g mask="url(#b)"><path d="M151.911 84.33c3.136 1.393 3.821 3.25 8.33 7.504 4.509 4.255 11.759 5.029 17.442 4.796 1.725-.07 2.818-.505 3.503-1.077.066-1.87-.566-4.096-2.718-5.886-3.626-3.017-10.484-7.66-12.641-11.836-2.157-4.177-4.214-5.493-5.391-6.034-1.178-.54-10.819-1.61-10.819-1.61s-2.02-.246-2.51 1.534c-.49 1.78-1.372 2.63-2.157 4.95-.29.856-.524 1.848-.698 2.823 1.517 2.059 4.754 3.547 7.659 4.836Z" fill="#fff"/><path d="M177.682 96.632c-5.683.233-12.936-.54-17.442-4.797-4.509-4.256-5.194-6.112-8.33-7.503-2.905-1.29-6.142-2.78-7.656-4.834-.295 1.667-.406 3.28-.282 4.06.195 1.238 3.429 2.63 5.978 3.714 2.55 1.083 5.373 4.486 6.803 5.956 1.43 1.47 7.113 5.88 12.797 6.576 5.683.697 9.702.541 10.779-1.16.437-.692.811-1.806.856-3.087-.685.567-1.778 1.004-3.503 1.075Z" fill="#EFEFEF"/><path d="M151.421 62.285s-.295 4.177-1.469 7.04c-1.177 2.863-1.567 5.416-.785 6.343.785.93 2.842-.54 3.919-1.16 1.077-.62 3.136-3.877 9.112-1.667 0 0 1.372-5.913 2.547-9.396l-13.324-1.16Z" fill="#E5B693"/><path d="M149.849 17.241s-.634 32.391-.634 35.455-.694 7.617-.694 7.866c0 .249.595 1.408 1.488 1.904s6.844 2.982 21.428 2.401c0 0 .893-.164.992-1.241.098-1.077 3.908-44.398 4.006-46.385h-26.586Z" fill="#373A37"/><path d="M116.927 82.623a16.009 16.009 0 0 0 11.074-3.753c1.765-1.51 2.255-8.316 4.801-12.107 2.547-3.79 5.684-7.426 6.371-8.742.287-.553.835-.983 1.222-1.613-.168-.441-.332-.822-.437-1.094-.392-1.006-2.449-2.786-3.724-4.643-1.275-1.856-2.647-2.089-2.647-2.089s-7.448 6.809-9.605 6.809-2.352.62-3.036 1.78c-.685 1.16-.588 5.416-2.057 9.36-1.388 3.725-6.005 7.312-6.766 10.956.327 2.146 1.404 4.992 4.804 5.136Z" fill="#fff"/><path d="M140.393 56.407c-.385.63-.932 1.06-1.222 1.614-.685 1.316-3.822 4.95-6.371 8.742-2.547 3.79-4.78 11.45-6.545 12.959-1.764 1.51-3.892 2.873-9.33 2.9-2.892.015-4.478-2.99-4.804-5.135a5.018 5.018 0 0 0-.095.647c-.295 3.867 1.959 6.653 4.899 7.349 2.939.697 5.78.077 10.094-2.397 4.312-2.476 4.459-6.121 6.566-11.911.945-2.601 6.566-8.975 7.25-10.678.503-1.241.013-2.894-.442-4.09Z" fill="#EFEFEF"/><path d="M132.803 45.568s-.098 1.857.785 3.017c.882 1.16 3.913 6.653-.788 9.44 0 0-.977-2.321-4.798-2.244-3.822.077-5.391 0-5.391 0s.195-2.55 0-3.479c-.195-.929-.588-5.03-.588-5.03l10.78-1.704Z" fill="#E5B693"/><path d="M117.954 17.565s-2.801 27.736-2.609 28.894c.192 1.158 1.062 1.902 2.609 1.985 1.545.082 13.235-1.24 15.94-2.563 0 0 1.184-.164 1.171-.826-.013-.662 3.179-32.664 3.179-27.49h-20.29Z" fill="#373A37"/></g><path d="M34 31.774c1.763 0 1.861-1.774 3.918-1.774 2.106 0 2.106 2 4.164 2 2.057 0 2.155-1.774 4.114-1.774S48.106 32 50.114 32s2.155-1.774 4.066-1.774C56.09 30.226 56.776 32 58 32" stroke="#3C8B96" stroke-width="2" stroke-linecap="round" stroke-linejoin="round"/><path d="M80 111H44a2 2 0 0 0-2 2v35h40v-35a2 2 0 0 0-2-2Zm50 0H94a2 2 0 0 0-2 2v35h40v-35a2 2 0 0 0-2-2Zm50 0h-36a2 2 0 0 0-2 2v35h40v-35a2 2 0 0 0-2-2Z" fill="#F0F1F2"/><rect x="42" y="52" width="38" height="5" rx="2.5" fill="#fff"/><rect x="42" y="62" width="49" height="5" rx="2.5" fill="#fff"/><g filter="url(#c)"><path d="M50 77H16a4 4 0 0 0-4 4v34a4 4 0 0 0 4 4h34a4 4 0 0 0 4-4V81a4 4 0 0 0-4-4Z" fill="#fff"/></g><path d="M46.101 100c-.97 0-1.653-.606-2.264-1.121-.719-.606-1.186-1-1.905-1-.611 0-.935.272-1.51.788-.647.575-1.437 1.303-2.947 1.303s-2.3-.758-2.84-1.334c-.539-.515-.79-.788-1.401-.788-.647 0-.97.273-1.51.788-.611.546-1.438 1.303-2.947 1.303-1.546 0-2.373-.848-2.948-1.485-.575-.605-.934-.939-1.617-.939-.755 0-1.114.303-1.69.879-.575.545-1.294 1.242-2.623 1.242-.504 0-.899-.333-.899-.757 0-.425.395-.758.899-.758.467 0 .754-.242 1.258-.727.61-.576 1.437-1.394 3.019-1.394s2.408.849 2.983 1.485c.575.606.899.909 1.546.909.719 0 1.042-.273 1.653-.818.611-.576 1.402-1.273 2.84-1.273 1.473 0 2.228.758 2.803 1.303.54.546.827.788 1.474.788.683 0 1.042-.303 1.617-.818.611-.576 1.402-1.273 2.84-1.273 1.545 0 2.516.849 3.199 1.455.36.303.755.666.97.666.504 0 .899.334.899.758s-.395.818-.899.818Z" fill="#208B86"/><g filter="url(#d)"><path d="M205.76 39.498h-42.52c-3.447 0-6.24-2.797-6.24-6.249S159.793 27 163.24 27h42.52a6.244 6.244 0 0 1 6.24 6.25 6.225 6.225 0 0 1-6.24 6.248Z" fill="#fff"/></g><path d="M163.654 36.016h5.408c4.22 0 3.031-6.07-.475-6.07-4.071 0 3.209 6.07 7.458 6.07h24.365" stroke="#108060" stroke-width="1.562" stroke-miterlimit="10"/><defs><filter id="a" x="10.07" y="7.626" width="203.86" height="153.86" filterUnits="userSpaceOnUse" color-interpolation-filters="sRGB"><feFlood flood-opacity="0" result="BackgroundImageFix"/><feColorMatrix in="SourceAlpha" values="0 0 0 0 0 0 0 0 0 0 0 0 0 0 0 0 0 0 127 0" result="hardAlpha"/><feOffset dy="1.556"/><feGaussianBlur stdDeviation="5.965"/><feColorMatrix values="0 0 0 0 0 0 0 0 0 0 0 0 0 0 0 0 0 0 0.09 0"/><feBlend in2="BackgroundImageFix" result="effect1_dropShadow_1970_64946"/><feColorMatrix in="SourceAlpha" values="0 0 0 0 0 0 0 0 0 0 0 0 0 0 0 0 0 0 127 0" result="hardAlpha"/><feOffset dy="1.037"/><feGaussianBlur stdDeviation=".778"/><feColorMatrix values="0 0 0 0 0 0 0 0 0 0 0 0 0 0 0 0 0 0 0.12 0"/><feBlend in2="effect1_dropShadow_1970_64946" result="effect2_dropShadow_1970_64946"/><feBlend in="SourceGraphic" in2="effect2_dropShadow_1970_64946" result="shape"/></filter><filter id="c" x=".07" y="66.626" width="65.86" height="65.86" filterUnits="userSpaceOnUse" color-interpolation-filters="sRGB"><feFlood flood-opacity="0" result="BackgroundImageFix"/><feColorMatrix in="SourceAlpha" values="0 0 0 0 0 0 0 0 0 0 0 0 0 0 0 0 0 0 127 0" result="hardAlpha"/><feOffset dy="1.556"/><feGaussianBlur stdDeviation="5.965"/><feColorMatrix values="0 0 0 0 0 0 0 0 0 0 0 0 0 0 0 0 0 0 0.09 0"/><feBlend in2="BackgroundImageFix" result="effect1_dropShadow_1970_64946"/><feColorMatrix in="SourceAlpha" values="0 0 0 0 0 0 0 0 0 0 0 0 0 0 0 0 0 0 127 0" result="hardAlpha"/><feOffset dy="1.037"/><feGaussianBlur stdDeviation=".778"/><feColorMatrix values="0 0 0 0 0 0 0 0 0 0 0 0 0 0 0 0 0 0 0.12 0"/><feBlend in2="effect1_dropShadow_1970_64946" result="effect2_dropShadow_1970_64946"/><feBlend in="SourceGraphic" in2="effect2_dropShadow_1970_64946" result="shape"/></filter><filter id="d" x="145.07" y="16.626" width="78.86" height="36.358" filterUnits="userSpaceOnUse" color-interpolation-filters="sRGB"><feFlood flood-opacity="0" result="BackgroundImageFix"/><feColorMatrix in="SourceAlpha" values="0 0 0 0 0 0 0 0 0 0 0 0 0 0 0 0 0 0 127 0" result="hardAlpha"/><feOffset dy="1.556"/><feGaussianBlur stdDeviation="5.965"/><feColorMatrix values="0 0 0 0 0 0 0 0 0 0 0 0 0 0 0 0 0 0 0.09 0"/><feBlend in2="BackgroundImageFix" result="effect1_dropShadow_1970_64946"/><feColorMatrix in="SourceAlpha" values="0 0 0 0 0 0 0 0 0 0 0 0 0 0 0 0 0 0 127 0" result="hardAlpha"/><feOffset dy="1.037"/><feGaussianBlur stdDeviation=".778"/><feColorMatrix values="0 0 0 0 0 0 0 0 0 0 0 0 0 0 0 0 0 0 0.12 0"/><feBlend in2="effect1_dropShadow_1970_64946" result="effect2_dropShadow_1970_64946"/><feBlend in="SourceGraphic" in2="effect2_dropShadow_1970_64946" result="shape"/></filter></defs></svg>