<svg xmlns="http://www.w3.org/2000/svg" width="220" height="166" fill="none"><g filter="url(#a)"><path d="M198 18H26a4 4 0 0 0-4 4v122a4 4 0 0 0 4 4h172a4 4 0 0 0 4-4V22a4 4 0 0 0-4-4Z" fill="#fff"/></g><rect x="34" y="70" width="72" height="66" rx="4" fill="#F0F1F2"/><rect x="118" y="71" width="48" height="6" rx="3" fill="#B6BABF"/><rect x="118" y="88" width="68" height="4" rx="2" fill="#E8E9EB"/><rect x="118" y="99" width="56" height="4" rx="2" fill="#E8E9EB"/><rect x="118" y="115" width="40" height="12" rx="2" fill="#108060"/><path d="M198 18H26a4 4 0 0 0-4 4v20h180V22a4 4 0 0 0-4-4Z" fill="#DE6A5A"/><path d="M34 30.774c1.763 0 1.861-1.774 3.918-1.774 2.107 0 2.107 2 4.164 2 2.057 0 2.155-1.774 4.114-1.774 1.96 0 1.91 1.774 3.918 1.774s2.155-1.774 4.066-1.774C56.09 29.226 56.776 31 58 31" stroke="#fff" stroke-width="2" stroke-linecap="round" stroke-linejoin="round"/><g filter="url(#b)"><rect x="12" y="54" width="80" height="70" rx="4" fill="#F5D359"/></g><path d="M12 95h80v25a4 4 0 0 1-4 4H16a4 4 0 0 1-4-4V95Z" fill="#E9AF58"/><path d="m68 84.156 13.684-13.31a1 1 0 0 0 .302-.747l-.097-3.13a1 1 0 0 0-1-.969H68v18.156Z" fill="#00996E"/><path d="M40 66h30.5L81 124H38V68a2 2 0 0 1 2-2Z" fill="#00996E"/><path fill-rule="evenodd" clip-rule="evenodd" d="M40 95a2 2 0 0 0-2 2v27h43l-5.257-29H40Z" fill="#00735C"/><path d="M41.5 124C55.583 124 67 111.016 67 95H16c0 16.016 11.417 29 25.5 29Z" fill="#EC856F"/><path fill="#fff" d="M16 95h51v2H16z"/><defs><filter id="a" x="10.07" y="7.626" width="203.86" height="153.86" filterUnits="userSpaceOnUse" color-interpolation-filters="sRGB"><feFlood flood-opacity="0" result="BackgroundImageFix"/><feColorMatrix in="SourceAlpha" values="0 0 0 0 0 0 0 0 0 0 0 0 0 0 0 0 0 0 127 0" result="hardAlpha"/><feOffset dy="1.556"/><feGaussianBlur stdDeviation="5.965"/><feColorMatrix values="0 0 0 0 0 0 0 0 0 0 0 0 0 0 0 0 0 0 0.09 0"/><feBlend in2="BackgroundImageFix" result="effect1_dropShadow_2153_66285"/><feColorMatrix in="SourceAlpha" values="0 0 0 0 0 0 0 0 0 0 0 0 0 0 0 0 0 0 127 0" result="hardAlpha"/><feOffset dy="1.037"/><feGaussianBlur stdDeviation=".778"/><feColorMatrix values="0 0 0 0 0 0 0 0 0 0 0 0 0 0 0 0 0 0 0.12 0"/><feBlend in2="effect1_dropShadow_2153_66285" result="effect2_dropShadow_2153_66285"/><feBlend in="SourceGraphic" in2="effect2_dropShadow_2153_66285" result="shape"/></filter><filter id="b" x=".07" y="43.626" width="103.86" height="93.86" filterUnits="userSpaceOnUse" color-interpolation-filters="sRGB"><feFlood flood-opacity="0" result="BackgroundImageFix"/><feColorMatrix in="SourceAlpha" values="0 0 0 0 0 0 0 0 0 0 0 0 0 0 0 0 0 0 127 0" result="hardAlpha"/><feOffset dy="1.556"/><feGaussianBlur stdDeviation="5.965"/><feColorMatrix values="0 0 0 0 0 0 0 0 0 0 0 0 0 0 0 0 0 0 0.09 0"/><feBlend in2="BackgroundImageFix" result="effect1_dropShadow_2153_66285"/><feColorMatrix in="SourceAlpha" values="0 0 0 0 0 0 0 0 0 0 0 0 0 0 0 0 0 0 127 0" result="hardAlpha"/><feOffset dy="1.037"/><feGaussianBlur stdDeviation=".778"/><feColorMatrix values="0 0 0 0 0 0 0 0 0 0 0 0 0 0 0 0 0 0 0.12 0"/><feBlend in2="effect1_dropShadow_2153_66285" result="effect2_dropShadow_2153_66285"/><feBlend in="SourceGraphic" in2="effect2_dropShadow_2153_66285" result="shape"/></filter></defs></svg>