<svg width="219" height="170" viewBox="0 0 219 170" fill="none" xmlns="http://www.w3.org/2000/svg"><g clip-path="url(#a)"><g clip-path="url(#b)"><g clip-path="url(#c)"><g clip-path="url(#d)"><mask id="e" style="mask-type:alpha" maskUnits="userSpaceOnUse" x="13" y="65" width="284" height="284"><path d="M154.787 348.657c78.054 0 141.329-63.275 141.329-141.329C296.116 129.275 232.841 66 154.787 66 76.734 66 13.459 129.275 13.459 207.328c0 78.054 63.275 141.329 141.328 141.329Z" fill="#F9F9F9"/></mask><g mask="url(#e)" fill="#B9D2CF" fill-opacity=".2"><path d="M154.856 348.657c78.054 0 141.329-63.275 141.329-141.329S232.91 65.999 154.856 65.999 13.527 129.274 13.527 207.328s63.275 141.329 141.329 141.329Z"/><path d="M261.367 110.755c-9.211 0-10.461 3.184-17.285 3.184s-15.012-.911-20.47 4.548c-5.458 5.458-5.205 7.192-12.485 5.829-7.279-1.366-26.096-4.808-34.738-5.264-8.643-.455-9.327 4.806-13.422 10.264-1.384 1.848-9.682 5.756-11.053 10.264-2.332 7.661-4.698 16.298-10.635 19.39-5.414 2.819-4.548 5.914-3.185 10.917 1.364 5.003 5.914 7.732 10.917 3.639 5.003-4.095 14.101-11.371 17.74-10.916 3.64.455 6.824 10.461 16.375 8.643 9.553-1.819 10.008-5.459 15.466-7.28 5.459-1.818 8.188 0 9.098 8.187.911 8.188-5.003 15.922-16.83 14.101-11.826-1.818-18.651-9.553-23.653-9.553-5.003 0-12.738 0-11.372 3.184 1.366 3.185-1.819 5.914-8.187 5.003-6.369-.91-11.193.237-17.559 4.787-6.369 4.548-25.241 22.773-18.267 37.51 4.777 10.094 22.18 5.466 35.37 5.466 13.191 0 20.015 4.548 21.38 12.738 1.366 8.187-4.095 14.556 5.914 33.662 10.008 19.107 18.196 21.836 24.109 21.836 5.914 0 10.916-4.548 11.827-15.012.911-10.461 8.643-34.115 17.285-46.852 8.643-12.738 10.009-25.928 2.729-30.931-7.279-5.003 4.095-1.818 6.824-6.369 2.729-4.547 2.274-9.097 10.917-10.916 8.642-1.818 10.461 3.184 18.195 10.009 7.732 6.824 11.372 3.639 14.101 5.913 2.729 2.274-1.818 11.827 1.819 10.916 3.639-.91 5.003-12.737 12.282-14.556 7.279-1.818 5.003-2.729 6.369-10.008 1.366-7.279 5.458 1.818 13.19-3.184 7.732-5.003-5.458-32.752-11.372-57.314-5.913-24.565-11.371-12.282-20.925-15.922-9.55-3.64-10.916-5.913-20.469-5.913Zm-197.613 19.35c1.365 5.458-3.611 12.177-8.159 12.633-4.547.455-10.748 2.587-13.932 8.955-3.185 6.369-4.548 9.553 3.64 10.917 8.187 1.363 1.986-10.159 11.084-11.977 9.098-1.819 2.553-6.916 12.106-2.369 9.553 4.548 19.14 10.788 18.685 15.79-.455 5.003-14.582 7.654-14.582 7.654s-3.005 10.387-11.472 12.348c-9.445 2.187-12.069 11.029-17.18 9.487-4.89-4.511-9.103 10.916-2.279 16.374 6.825 5.459 7.28 11.827 7.28 11.827h12.282c5.914 0 3.64 5.003 10.916 5.914 7.28.91 15.922 7.279 23.199 16.83 7.279 9.553 7.279 14.101.91 20.014-6.368 5.913-4.094 9.553-6.368 14.101-2.274 4.547-8.187.91-11.827 5.458-3.64 4.548-.91 3.184-4.548 12.282-3.64 9.098-5.913 10.009-5.458 15.467.455 5.458 1.819 8.187-2.274 7.279-4.095-.91-12.737-15.922-15.011-27.749-2.274-11.827.455-19.103-1.819-25.472-2.273-6.369-6.368-5.003-10.916-8.643-4.548-3.639-3.184-11.827-3.64-17.74-.455-5.914 9.553-15.467 9.553-15.467s2.73-2.729 0-6.369c-2.729-3.639-6.824.911-10.46-4.547-3.64-5.458-2.73-5.458-7.28-11.827C21.654 194.906 8 193.543 8 193.543s.456-18.651.456-20.47c0-1.818 24.109-41.394 24.109-41.394s5.003 3.184 11.372 4.548c6.368 1.363 6.295-6.956 14.027-10.596 7.732-3.639 5.79 4.474 5.79 4.474Zm-7.459-8.003c-5.913-.455-7.28-2.729-3.184-4.548 4.095-1.818 7.732-1.365 9.098-5.003 1.365-3.639 7.731-4.094 3.64 4.095-4.093 8.19-9.554 5.456-9.554 5.456ZM90.46 90.956c-6.353 4.026-6.316 4.318-12.945 5.084-6.63.766-10.14 22.562-5.998 24.854 4.145 2.292 4.971 3.055 5.8 8.021.83 4.966 3.419 12.677 7.148 10.004 3.729-2.674.726-11.53 7.769-12.296 7.045-.763 6.363-2.147 10.69-5.829 3.116-2.653 6.713-11.935 9.829-20.999 1.356-3.94.719-13.04-9.59-16.798-8.992-3.279-8.866 5.527-12.703 7.959Z"/><path d="M227.852 86.33c4.497 15.119 6.911 31.136 6.911 47.713 0 92.281-74.81 167.093-167.094 167.093a168.52 168.52 0 0 1-19.59-1.139c25.912 29.809 64.109 48.657 106.706 48.657 78.054 0 141.328-63.274 141.328-141.328.003-51.311-27.346-96.237-68.261-120.996Z" style="mix-blend-mode:multiply" opacity=".54"/></g></g><path d="M70 152c1.1 0 2-.9 2-2s-.9-2-2-2-2 .9-2 2 .9 2 2 2Zm0-8c3.31 0 6 2.87 6 6.4 0 6-5.4 9.35-5.63 9.49-.11.07-.24.11-.37.11s-.26-.04-.37-.11c-.23-.14-5.63-3.49-5.63-9.49 0-3.53 2.69-6.4 6-6.4Z" fill="#F87E4A"/></g><g filter="url(#f)"><rect x="40" y="20" width="71" height="109.405" rx="4" fill="#fff"/></g><path d="M48.494 103h27.969" stroke="#F87E4A" stroke-width="6" stroke-linecap="round"/><path d="M48 113.416h54.247M48 120.149h27.969" stroke="#F87E4A" stroke-width="4" stroke-linecap="round"/><rect x="44.786" y="25.049" width="62.225" height="55.951" rx="4" fill="#FFEFD2"/><g filter="url(#g)"><rect x="137" y="20" width="71" height="109.405" rx="4" fill="#fff"/></g><path d="M145 98h42" stroke="#67CCC3" stroke-width="6" stroke-linecap="round"/><path d="M145 108h46.5m-46.5 6h54.247M145 120.149h27.969" stroke="#67CCC3" stroke-width="4" stroke-linecap="round"/><rect x="141.786" y="25.049" width="62.225" height="55.951" rx="4" fill="#FFEFD2"/><path d="m62.365 50.545-4.398 6.14-.512.717L52 55.329v-6.163c0-.608.671-.98 1.214-.68 3.294 1.819 6.338 2.47 9.15 2.059Z" fill="#00735C"/><path d="m73.657 50.785-7.133 10.062-9.07-3.445.513-.717 4.398-6.14c1.775-.26 3.457-.938 5.05-2.018l6.242 2.258Z" fill="#fff"/><path d="M66.524 60.847H52v-5.518l5.45 2.073h.005l9.07 3.445Z" fill="#E8E9EB"/><path d="m78.147 52.413-5.975 8.434h-2.42l6.281-9.203 2.114.769Zm13.471 8.233c-.056.011-.112.023-.169.027a11.87 11.87 0 0 1-2.045.174H75.4l5.16-7.563 5.745 2.077a8.046 8.046 0 0 1 4.12 3.338l1.194 1.947Z" fill="#fff"/><path d="M100.414 57.525v.298l-6.871 2.31c-.683.244-1.38.423-2.091.542-.001 0-.002 0-.003-.002L90.424 58.7a8.046 8.046 0 0 0-4.119-3.338l-5.745-2.077-.23-.083-2.086-.752-.097-.036-2.114-.768-.112-.04-2.082-.753-.182-.067-6.241-2.258a17.397 17.397 0 0 0 2.703-2.278.825.825 0 0 1 .86-.203l28.374 9.997c.637.228 1.061.82 1.061 1.482Z" fill="#E8E9EB"/><path d="m76.033 51.645-6.281 9.202h-3.228l7.133-10.062.182.067 2.082.753.112.04Zm4.527 1.639-5.16 7.562h-3.227l5.975-8.433.097.035 2.085.753.23.083Z" fill="#108060"/><path d="M100.414 57.823v1.956c0 .646-.404 1.226-1.013 1.466l-4.894 1.908a12.31 12.31 0 0 1-4.494.847H52.807a.797.797 0 0 1-.807-.788v-2.389l37.404.024c.686 0 1.371-.055 2.045-.173.057-.004.113-.016.17-.028a12.144 12.144 0 0 0 1.924-.512l6.871-2.31Z" fill="#B6BABF"/><path d="M74.345 48.793a.931.931 0 1 1-1.862 0 .931.931 0 0 1 1.862 0Zm3.724 1.242a.931.931 0 1 1-1.862 0 .931.931 0 0 1 1.862 0Zm3.724 1.241a.931.931 0 1 1-1.862 0 .931.931 0 0 1 1.862 0Zm3.724 1.241a.931.931 0 1 1-1.862 0 .931.931 0 0 1 1.862 0Z" fill="#9FA5AB"/><path d="m161.364 50.546-4.397 6.14-.512.717L151 55.331l-.001-6.163c0-.608.672-.98 1.214-.68 3.295 1.819 6.338 2.469 9.151 2.058Z" fill="#00735C"/><path d="m172.656 50.785-7.132 10.062-9.07-3.444.513-.717 4.397-6.14c1.775-.26 3.457-.939 5.051-2.019l6.241 2.258Z" fill="#fff"/><path d="M165.524 60.848H151v-5.517l5.45 2.073h.005l9.069 3.444Z" fill="#E8E9EB"/><path d="m177.147 52.413-5.974 8.434h-2.421l6.281-9.203 2.114.769Zm13.472 8.232c-.057.011-.113.023-.17.027-.674.118-1.359.174-2.045.174H174.4l5.16-7.563 5.745 2.077a8.047 8.047 0 0 1 4.119 3.338l1.195 1.947Z" fill="#fff"/><path d="M199.414 57.523v.298l-6.871 2.311c-.682.244-1.38.423-2.091.542-.001 0-.002 0-.003-.002l-1.025-1.974a8.043 8.043 0 0 0-4.119-3.338l-5.745-2.076-.23-.083-2.086-.753-.097-.035-2.114-.768-.113-.04-2.082-.752-.182-.067-6.241-2.258a17.376 17.376 0 0 0 2.703-2.278.825.825 0 0 1 .86-.204l28.374 9.995c.638.229 1.062.82 1.062 1.482Z" fill="#E8E9EB"/><path d="m175.033 51.645-6.281 9.202h-3.228l7.132-10.061.182.067 2.082.752.113.04Zm4.527 1.638-5.16 7.563h-3.227l5.974-8.434.097.036 2.086.752.23.083Z" fill="#108060"/><path d="M199.414 57.821v1.956c0 .647-.403 1.226-1.013 1.466l-4.893 1.908a12.32 12.32 0 0 1-4.495.848l-37.206.003a.798.798 0 0 1-.807-.788v-2.389l37.404.021c.686 0 1.372-.055 2.045-.173.057-.004.113-.016.17-.028a12.145 12.145 0 0 0 1.924-.513l6.871-2.31Z" fill="#B6BABF"/><path d="M173.344 48.793a.931.931 0 1 1-1.862 0 .931.931 0 0 1 1.862 0Zm3.724 1.241a.93.93 0 1 1-1.861.001.93.93 0 0 1 1.861 0Zm3.725 1.241a.931.931 0 1 1-1.862 0 .931.931 0 0 1 1.862 0Zm3.724 1.242a.931.931 0 1 1-1.862 0 .931.931 0 0 1 1.862 0Z" fill="#9FA5AB"/><g filter="url(#h)"><path d="M102 70c0 13.255 10.745 24 24 24s24-10.745 24-24-10.745-24-24-24-24 10.745-24 24Z" fill="#108060"/></g><path fill-rule="evenodd" clip-rule="evenodd" d="m127.552 75.248 2.26-5.086 2.261 5.086h-4.521Zm9.324 3.729-5.75-12.937a1.438 1.438 0 0 0-2.628 0l-2.814 6.333h-.184c-1.834 0-3.22-.43-4.262-1.029.005-.007.011-.01.017-.017 1.857-2.075 2.554-5.083 2.79-7.579h1.455a1.437 1.437 0 1 0 0-2.874h-1.354c-.022-.906-.084-1.511-.092-1.596a1.435 1.435 0 0 0-1.586-1.27 1.44 1.44 0 0 0-1.272 1.585c.001.018.05.516.072 1.28h-5.831a1.438 1.438 0 0 0 0 2.875h5.723c-.207 1.97-.742 4.2-2.041 5.655-.611-.87-.828-1.617-.851-1.7a1.436 1.436 0 0 0-2.786.707c.17.681.536 1.54 1.118 2.414-.365.072-.75.112-1.163.112a1.438 1.438 0 0 0 0 2.875c1.231 0 2.341-.23 3.337-.672 1.383 1.056 3.238 1.874 5.652 2.063l-1.678 3.775a1.44 1.44 0 0 0 .731 1.897 1.432 1.432 0 0 0 1.897-.73l.899-2.02h7.075l.898 2.02a1.439 1.439 0 0 0 2.628-1.167Z" fill="#fff"/></g></g><defs><clipPath id="a"><path fill="#fff" d="M0 0h219v170H0z"/></clipPath><clipPath id="b"><path fill="#fff" d="M0 0h270v170H0z"/></clipPath><clipPath id="c"><path fill="#fff" d="M0 0h270v170H0z"/></clipPath><clipPath id="d"><path fill="#fff" transform="translate(8 66)" d="M0 0h308.501v282.657H0z"/></clipPath><filter id="f" x="29.78" y="10.23" width="91.439" height="129.845" filterUnits="userSpaceOnUse" color-interpolation-filters="sRGB"><feFlood flood-opacity="0" result="BackgroundImageFix"/><feColorMatrix in="SourceAlpha" values="0 0 0 0 0 0 0 0 0 0 0 0 0 0 0 0 0 0 127 0" result="hardAlpha"/><feOffset dy=".449"/><feGaussianBlur stdDeviation="5.11"/><feColorMatrix values="0 0 0 0 0 0 0 0 0 0 0 0 0 0 0 0 0 0 0.3 0"/><feBlend in2="BackgroundImageFix" result="effect1_dropShadow_1112_128167"/><feBlend in="SourceGraphic" in2="effect1_dropShadow_1112_128167" result="shape"/></filter><filter id="g" x="126.78" y="10.23" width="91.439" height="129.845" filterUnits="userSpaceOnUse" color-interpolation-filters="sRGB"><feFlood flood-opacity="0" result="BackgroundImageFix"/><feColorMatrix in="SourceAlpha" values="0 0 0 0 0 0 0 0 0 0 0 0 0 0 0 0 0 0 127 0" result="hardAlpha"/><feOffset dy=".449"/><feGaussianBlur stdDeviation="5.11"/><feColorMatrix values="0 0 0 0 0 0 0 0 0 0 0 0 0 0 0 0 0 0 0.3 0"/><feBlend in2="BackgroundImageFix" result="effect1_dropShadow_1112_128167"/><feBlend in="SourceGraphic" in2="effect1_dropShadow_1112_128167" result="shape"/></filter><filter id="h" x="92" y="36" width="68" height="68" filterUnits="userSpaceOnUse" color-interpolation-filters="sRGB"><feFlood flood-opacity="0" result="BackgroundImageFix"/><feColorMatrix in="SourceAlpha" values="0 0 0 0 0 0 0 0 0 0 0 0 0 0 0 0 0 0 127 0" result="hardAlpha"/><feOffset/><feGaussianBlur stdDeviation="5"/><feColorMatrix values="0 0 0 0 0 0 0 0 0 0 0 0 0 0 0 0 0 0 0.5 0"/><feBlend in2="BackgroundImageFix" result="effect1_dropShadow_1112_128167"/><feBlend in="SourceGraphic" in2="effect1_dropShadow_1112_128167" result="shape"/></filter></defs></svg>