<svg width="138" height="129" viewBox="0 0 138 129" fill="none" xmlns="http://www.w3.org/2000/svg"><path d="M133 64.5c0 35.636-28.864 64.5-64.5 64.5C32.864 129 4 100.136 4 64.5 4 28.864 32.864 0 68.5 0 104.136 0 133 28.864 133 64.5Z" fill="#F0F1F2"/><path d="M30.32 18.91c0-1.904 1.561-3.447 3.487-3.447h69.472c1.925 0 3.486 1.543 3.486 3.447v68.682c0 1.904-1.561 3.446-3.486 3.446H33.807c-1.926 0-3.486-1.542-3.486-3.446V18.91Z" fill="#fff"/><path d="M75.295 36.659s-1.993.965-6.688.965c-4.694 0-6.817-.965-6.817-.965L47 42.446l1.993 9.003 7.7-1.864v20.45h23.699V49.52l7.7 1.929 1.994-9.003-14.79-5.787Z" fill="#399C97"/><path d="M75.232 36.659a6.752 6.752 0 0 1-6.752 6.753c-3.666 0-6.689-3.023-6.689-6.753 0 0 2.187.965 6.817.965 4.63 0 6.624-.965 6.624-.965Z" fill="#7FBEC6"/><path d="M.438 87.91a2.606 2.606 0 0 1 2.606-2.605h33.01a2.606 2.606 0 0 1 2.606 2.606v33.01a2.606 2.606 0 0 1-2.606 2.606H3.044a2.606 2.606 0 0 1-2.606-2.606v-33.01Z" fill="#fff"/><path d="M10.163 101.43s-1.054 2.942-.558 5.836H29.47c-.173-1.339-1.125-2.344-2.337-2.535l-.217-.048c-2.077-.287-4.025-1.1-5.8-2.344l-3.55-2.44c-1.341 1.961-3.895 2.966-5.973 2.105l-1.429-.574Z" fill="#7FBEC6"/><path d="M29.47 107.266v1.637c0 .234-.09.468-.266.468H9.973c-.25 0-.5-.215-.5-.526v-1.579h19.996Z" fill="#399C97"/><path fill-rule="evenodd" clip-rule="evenodd" d="M20.49 100.986a.695.695 0 0 1 0 .983l-.526.526a.696.696 0 0 1-.983-.983l.526-.526a.694.694 0 0 1 .983 0Zm1.578 1.053a.695.695 0 0 1 0 .983l-.526.526a.696.696 0 0 1-.983-.983l.526-.526a.694.694 0 0 1 .983 0Zm1.579 1.053a.694.694 0 0 1 0 .982l-.526.527a.696.696 0 0 1-.983-.983l.526-.526a.694.694 0 0 1 .983 0Z" fill="#399C97"/><path d="M99.382 87.91a2.606 2.606 0 0 1 2.606-2.605h33.01a2.606 2.606 0 0 1 2.606 2.606v33.01a2.606 2.606 0 0 1-2.606 2.606h-33.01a2.606 2.606 0 0 1-2.606-2.606v-33.01Z" fill="#fff"/><path d="m110.501 115.188 1.668-19.18h13.343l1.668 19.18h-4.17l-3.336-14.177h-1.668l-3.336 14.177h-4.169Z" fill="#399C97"/><path fill="#7FBEC6" d="M112.169 94.339h13.343v1.668h-13.343zm-1.597 20.014h4.294l-.196.834h-4.169l.071-.834Zm12.245 0h4.286l.076.834h-4.169l-.193-.834Z"/><path d="M30.322 56.117H20.068a2.256 2.256 0 0 0-2.255 2.255v26.933m88.953-29.188h10.212a2.296 2.296 0 0 1 2.297 2.297v26.89" stroke="#C4C4C4" stroke-width="1.39"/></svg>