<svg xmlns="http://www.w3.org/2000/svg" width="216" height="166" fill="none"><g clip-path="url(#a)"><g filter="url(#b)"><path d="M194 18H22a4 4 0 0 0-4 4v122a4 4 0 0 0 4 4h172a4 4 0 0 0 4-4V22a4 4 0 0 0-4-4z" fill="#fff"/></g><rect x="28" y="50" width="160" height="13" rx="6.5" fill="#E8E9EB"/><path d="M18 22a4 4 0 0 1 4-4h172a4 4 0 0 1 4 4v20H18V22z" fill="#42474C"/><path d="M30 30.77c1.76 0 1.86-1.77 3.92-1.77 2.1 0 2.1 2 4.16 2s2.16-1.77 4.12-1.77S44.1 31 46.1 31c2.01 0 2.16-1.77 4.07-1.77 1.91 0 2.6 1.77 3.82 1.77" stroke="#F0F1F2" stroke-width="2" stroke-linecap="round" stroke-linejoin="round"/><rect x="30" y="71" width="81" height="4" rx="2" fill="#7FBEC6"/><rect x="30" y="80.39" width="69" height="3" rx="1.5" fill="#E8E9EB"/><rect x="30" y="92.56" width="63.18" height="4.08" rx="2.04" fill="#7FBEC6"/><rect x="30" y="100.71" width="150.77" height="3.06" rx="1.53" fill="#E8E9EB"/><rect x="30" y="112.94" width="48.92" height="4.08" rx="2.04" fill="#7FBEC6"/><rect x="30" y="121.61" width="74" height="3" rx="1.5" fill="#E8E9EB"/><rect x="30" y="133.78" width="69.3" height="4.08" rx="2.04" fill="#7FBEC6"/><g filter="url(#c)"><rect x="114.72" y="84" width="93.28" height="41" rx="4.1" fill="#3C8B96"/></g><path d="M157 104.8c2.8 0 2.95-2.8 6.2-2.8 3.34 0 3.34 3.17 6.6 3.17 3.25 0 3.4-2.81 6.51-2.81 3.1 0 3.03 2.8 6.2 2.8 3.18 0 3.42-2.8 6.44-2.8 3.03 0 4.11 2.8 6.05 2.8" stroke="#fff" stroke-width="3.17" stroke-linecap="round" stroke-linejoin="round"/><path d="M140.33 106.73h-.84l-.3-.29a6.93 6.93 0 1 0-.75.75l.3.3v.84l5.33 5.33 1.59-1.6-5.33-5.33zm-6.4 0a4.8 4.8 0 1 1-.01-9.58 4.8 4.8 0 0 1 .01 9.58z" fill="#fff"/></g><defs><filter id="b" x="6.07" y="7.63" width="203.86" height="153.86" filterUnits="userSpaceOnUse" color-interpolation-filters="sRGB"><feFlood flood-opacity="0" result="BackgroundImageFix"/><feColorMatrix in="SourceAlpha" values="0 0 0 0 0 0 0 0 0 0 0 0 0 0 0 0 0 0 127 0" result="hardAlpha"/><feOffset dy="1.56"/><feGaussianBlur stdDeviation="5.96"/><feColorMatrix values="0 0 0 0 0 0 0 0 0 0 0 0 0 0 0 0 0 0 0.09 0"/><feBlend in2="BackgroundImageFix" result="effect1_dropShadow_517_13715"/><feColorMatrix in="SourceAlpha" values="0 0 0 0 0 0 0 0 0 0 0 0 0 0 0 0 0 0 127 0" result="hardAlpha"/><feOffset dy="1.04"/><feGaussianBlur stdDeviation=".78"/><feColorMatrix values="0 0 0 0 0 0 0 0 0 0 0 0 0 0 0 0 0 0 0.12 0"/><feBlend in2="effect1_dropShadow_517_13715" result="effect2_dropShadow_517_13715"/><feBlend in="SourceGraphic" in2="effect2_dropShadow_517_13715" result="shape"/></filter><filter id="c" x="102.5" y="73.37" width="117.73" height="65.46" filterUnits="userSpaceOnUse" color-interpolation-filters="sRGB"><feFlood flood-opacity="0" result="BackgroundImageFix"/><feColorMatrix in="SourceAlpha" values="0 0 0 0 0 0 0 0 0 0 0 0 0 0 0 0 0 0 127 0" result="hardAlpha"/><feOffset dy="1.59"/><feGaussianBlur stdDeviation="6.11"/><feColorMatrix values="0 0 0 0 0 0 0 0 0 0 0 0 0 0 0 0 0 0 0.09 0"/><feBlend in2="BackgroundImageFix" result="effect1_dropShadow_517_13715"/><feColorMatrix in="SourceAlpha" values="0 0 0 0 0 0 0 0 0 0 0 0 0 0 0 0 0 0 127 0" result="hardAlpha"/><feOffset dy="1.06"/><feGaussianBlur stdDeviation=".8"/><feColorMatrix values="0 0 0 0 0 0 0 0 0 0 0 0 0 0 0 0 0 0 0.12 0"/><feBlend in2="effect1_dropShadow_517_13715" result="effect2_dropShadow_517_13715"/><feBlend in="SourceGraphic" in2="effect2_dropShadow_517_13715" result="shape"/></filter><clipPath id="a"><path fill="#fff" transform="translate(8 8)" d="M0 0h200v150H0z"/></clipPath></defs></svg>