<svg width="226" height="226" viewBox="0 0 226 226" fill="none" xmlns="http://www.w3.org/2000/svg"><path d="M187 113c0 40.885-33.115 74-74 74s-74-33.115-74-74 33.115-74 74-74 74 33.115 74 74Z" fill="#F0F1F2"/><path d="M183.316 117h-62.632c-2.026 0-3.684-1.588-3.684-3.529V60.529c0-1.94 1.658-3.529 3.684-3.529h62.632c2.026 0 3.684 1.588 3.684 3.53v52.941c0 1.941-1.658 3.529-3.684 3.529Z" fill="#7FBEC6"/><path d="m117 95.889 17.132-17.222c2.21-2.223 5.71-2.223 7.736 0L159 95.889l10.132-10.185c2.21-2.222 5.71-2.222 7.736 0L187 95.889v17.407c0 2.037-1.658 3.704-3.684 3.704h-62.632c-2.026 0-3.684-1.667-3.684-3.704V95.889Z" fill="#3C8B96"/><path d="M161.358 78.072a7 7 0 1 0 0-14 7 7 0 0 0 0 14Z" fill="#fff"/><g filter="url(#a)"><path d="M111 50a3 3 0 0 0-3-3H45a3 3 0 0 0-3 3v38a3 3 0 0 0 3 3h63a3 3 0 0 0 3-3V50Z" fill="#fff"/></g><circle cx="76" cy="69" r="13" fill="#DE6A5A"/><path d="M74.53 73.044a1 1 0 0 1-1.53-.848v-6.392a1 1 0 0 1 1.53-.848l5.113 3.196a1 1 0 0 1 0 1.696l-5.113 3.196Z" fill="#fff"/><mask id="b" mask-type="alpha" maskUnits="userSpaceOnUse" x="39" y="39" width="148" height="148"><path d="M187 113c0 40.885-33.115 74-74 74s-74-33.115-74-74 33.115-74 74-74 74 33.115 74 74Z" fill="#F0F1F2"/></mask><g mask="url(#b)"><g filter="url(#c)"><path d="M156 100a3 3 0 0 0-3-3H71a3 3 0 0 0-3 3v118a3 3 0 0 0 3 3h82a3 3 0 0 0 3-3V100Z" fill="#fff"/></g><path d="M108.857 139.233v-31.208L78 139.233h30.857Z" fill="#5BA7B1"/><path d="M78.143 108.024v31.207L109 108.024H78.143Z" fill="#7FBEC6"/><rect x="78" y="149" width="68" height="6" rx="3" fill="#E8E9EB"/><rect x="78" y="161" width="68" height="6" rx="3" fill="#E8E9EB"/><rect x="78" y="173" width="46" height="6" rx="3" fill="#E8E9EB"/></g><defs><filter id="a" x="37" y="43" width="79" height="54" filterUnits="userSpaceOnUse" color-interpolation-filters="sRGB"><feFlood flood-opacity="0" result="BackgroundImageFix"/><feColorMatrix in="SourceAlpha" values="0 0 0 0 0 0 0 0 0 0 0 0 0 0 0 0 0 0 127 0"/><feOffset dy="1"/><feGaussianBlur stdDeviation="2.5"/><feColorMatrix values="0 0 0 0 0 0 0 0 0 0 0 0 0 0 0 0 0 0 0.3 0"/><feBlend in2="BackgroundImageFix" result="effect1_dropShadow"/><feBlend in="SourceGraphic" in2="effect1_dropShadow" result="shape"/></filter><filter id="c" x="63" y="93" width="98" height="134" filterUnits="userSpaceOnUse" color-interpolation-filters="sRGB"><feFlood flood-opacity="0" result="BackgroundImageFix"/><feColorMatrix in="SourceAlpha" values="0 0 0 0 0 0 0 0 0 0 0 0 0 0 0 0 0 0 127 0"/><feOffset dy="1"/><feGaussianBlur stdDeviation="2.5"/><feColorMatrix values="0 0 0 0 0 0 0 0 0 0 0 0 0 0 0 0 0 0 0.3 0"/><feBlend in2="BackgroundImageFix" result="effect1_dropShadow"/><feBlend in="SourceGraphic" in2="effect1_dropShadow" result="shape"/></filter></defs></svg>