<svg width="138" height="138" viewBox="0 0 138 138" fill="none" xmlns="http://www.w3.org/2000/svg"><path d="M138 69c0 38.136-30.863 69-69 69-38.136 0-69-30.864-69-69C0 30.864 30.863 0 69 0s69 30.957 69 69Z" fill="#F0F1F2"/><mask id="a" style="mask-type:alpha" maskUnits="userSpaceOnUse" x="-3" y="-26" width="145" height="164"><path d="M138.524 68.672c0 37.856-31.012 68.492-69.332 68.492-38.32 0-69.333-30.636-69.333-68.492 0-93.763-22.198-93.763 69.333-93.763 93.564 0 69.332 0 69.332 93.763Z" fill="#fff"/></mask><g mask="url(#a)"><g filter="url(#b)"><path d="M122.789 155.349V14.615c0-1.405-1.26-2.543-2.815-2.543H20.436c-1.555 0-2.815 1.139-2.815 2.543v140.734c0 1.405 1.26 2.543 2.815 2.543h99.538c1.555 0 2.815-1.138 2.815-2.543Z" fill="#fff"/></g><rect x="33.361" y="31.875" width="13.382" height="13.382" rx="2.974" fill="#108060"/><rect x="33.361" y="56.408" width="13.382" height="13.382" rx="2.974" fill="#108060"/><rect x="33.361" y="80.941" width="13.382" height="13.382" rx="2.974" fill="#108060"/><rect x="33.361" y="105.475" width="13.382" height="13.382" rx="2.974" fill="#108060"/><path d="m36.512 39.188 1.716 1.709a.608.608 0 0 0 .857 0l4.29-4.274a.606.606 0 0 0 .13-.658.607.607 0 0 0-.988-.196l-3.86 3.846-1.287-1.282a.61.61 0 0 0-.989.196.599.599 0 0 0 .131.659Zm0 24.532 1.716 1.71a.608.608 0 0 0 .857 0l4.29-4.274a.606.606 0 0 0 .13-.658.607.607 0 0 0-.988-.196l-3.86 3.846-1.287-1.282a.61.61 0 0 0-.989.196.599.599 0 0 0 .131.659Zm0 24.534 1.716 1.71a.608.608 0 0 0 .857 0l4.29-4.274a.606.606 0 0 0 .13-.66.607.607 0 0 0-.988-.195l-3.86 3.846L37.37 87.4a.61.61 0 0 0-.989.196.599.599 0 0 0 .131.659Zm0 24.533 1.716 1.71a.61.61 0 0 0 .857 0l4.29-4.274a.61.61 0 0 0 .177-.427.615.615 0 0 0-.178-.428.61.61 0 0 0-.857 0l-3.86 3.847-1.287-1.282a.61.61 0 0 0-.858 0 .597.597 0 0 0-.13.659c.03.073.074.139.13.195Z" fill="#fff"/><rect x="55.665" y="32.618" width="50.553" height="11.895" rx="5.947" fill="#E8E9EB"/><rect x="55.665" y="57.152" width="50.553" height="11.895" rx="5.947" fill="#E8E9EB"/><rect x="55.665" y="81.685" width="50.553" height="11.895" rx="5.947" fill="#E8E9EB"/><rect x="55.665" y="106.218" width="50.553" height="11.895" rx="5.947" fill="#E8E9EB"/></g><defs><filter id="b" x="9.195" y="5.332" width="122.019" height="162.671" filterUnits="userSpaceOnUse" color-interpolation-filters="sRGB"><feFlood flood-opacity="0" result="BackgroundImageFix"/><feColorMatrix in="SourceAlpha" values="0 0 0 0 0 0 0 0 0 0 0 0 0 0 0 0 0 0 127 0" result="hardAlpha"/><feOffset dy="1.685"/><feGaussianBlur stdDeviation="4.213"/><feColorMatrix values="0 0 0 0 0 0 0 0 0 0 0 0 0 0 0 0 0 0 0.3 0"/><feBlend in2="BackgroundImageFix" result="effect1_dropShadow_8173_195967"/><feBlend in="SourceGraphic" in2="effect1_dropShadow_8173_195967" result="shape"/></filter></defs></svg>