<svg width="148" height="148" viewBox="0 0 148 148" fill="none" xmlns="http://www.w3.org/2000/svg"><path d="M148 74c0 40.885-33.115 74-74 74S0 114.885 0 74 33.115 0 74 0s74 33.115 74 74Z" fill="#F0F1F2"/><g filter="url(#a)"><path d="M135 136H13c-2.2 0-4-2.616-4-5.814V16.814C9 13.616 10.8 11 13 11h122c2.2 0 4 2.616 4 5.814v113.372c0 3.198-1.8 5.814-4 5.814Z" fill="#fff"/></g><path d="M51.74 129H20.26c-.693 0-1.26-.686-1.26-1.524V98.524c0-.838.567-1.524 1.26-1.524h31.48c.693 0 1.26.686 1.26 1.524v28.952c0 .838-.567 1.524-1.26 1.524Z" fill="#5BA7B1"/><path d="M19 118v9.429c0 .864.567 1.571 1.26 1.571h31.48c.693 0 1.26-.707 1.26-1.571V118H19Z" fill="#7FBEC6"/><path d="M90.74 129H59.26c-.693 0-1.26-.686-1.26-1.524V98.524c0-.838.567-1.524 1.26-1.524h31.48c.693 0 1.26.686 1.26 1.524v28.952c0 .838-.567 1.524-1.26 1.524Z" fill="#5BA7B1"/><path d="M58 118v9.429c0 .864.567 1.571 1.26 1.571h31.48c.693 0 1.26-.707 1.26-1.571V118H58Z" fill="#7FBEC6"/><path d="M129.741 129H98.259c-.692 0-1.259-.686-1.259-1.524V98.524c0-.838.567-1.524 1.26-1.524h31.481c.692 0 1.259.686 1.259 1.524v28.952c0 .838-.567 1.524-1.259 1.524Z" fill="#5BA7B1"/><path d="M97 118v9.429c0 .864.567 1.571 1.26 1.571h31.481c.692 0 1.259-.707 1.259-1.571V118H97Z" fill="#7FBEC6"/><path d="M129 44H87c-1.1 0-2-.9-2-2V22c0-1.1.9-2 2-2h42c1.1 0 2 .9 2 2v20c0 1.1-.9 2-2 2Zm0 18H87c-1.1 0-2-.6-2-1.333V47.333C85 46.6 85.9 46 87 46h42c1.1 0 2 .6 2 1.333v13.334c0 .733-.9 1.333-2 1.333Z" fill="#E8E9EB"/><path d="M118.139 59.46h-.438l.438-4.73 1.314-.7-1.314 5.43Zm6.833 0h.438l-.438-4.73-1.314-.7 1.314 5.43Z" fill="#BF8563"/><path d="M126.111 50H117v5.607h9.111V50Z" fill="#D9942D"/><path d="M125.585 50.525h-8.059v4.556h8.059v-4.556Z" fill="#E9AF58"/><path d="M125.936 52.541h-8.761v.526h8.761v-.526Zm-3.504-.788h-1.753c0-.193.158-.35.351-.35h1.051c.193 0 .351.157.351.35Zm0 2.453h-1.753c0-.193.158-.35.351-.35h1.051c.193 0 .351.157.351.35Z" fill="#D9942D"/><path d="M95.113 52.712a1.226 1.226 0 1 1 2.38-.594 1.226 1.226 0 1 1-2.38.594Z" fill="#fff"/><path d="M94.34 51.359c-.115-.279-.15-.396-.363-.61l-.479-.477a.184.184 0 0 1 0-.26l.574-.575a.183.183 0 0 1 .26 0l.479.477c.212.212.33.248.609.364l2.083.838-2.326 2.33-.836-2.087Z" fill="#6B7177"/><path d="M95.234 50.201a1.172 1.172 0 0 1-.423-.287l-.834.835c.158.16.218.265.286.423l.97-.97Z" fill="#42474C"/><path d="m95.177 53.445 2.326-2.33.918.37c.066.026.083.11.033.16L95.705 54.4a.098.098 0 0 1-.16-.033l-.368-.92Z" fill="#DE6A5A"/><path fill-rule="evenodd" clip-rule="evenodd" d="m93.814 51.165 1.702-1.705-.46-.46-1.703 1.705a4.667 4.667 0 0 0-1.364 3.298v4.57h.651v-4.57c0-1.064.422-2.085 1.174-2.838Z" fill="#DE6A5A"/><path d="M95.234 58.332a.228.228 0 0 0-.229-.229h-3.777a.228.228 0 0 0-.228.229v.302c0 .126.102.228.228.228h3.777a.228.228 0 0 0 .229-.228v-.302Z" fill="#6B7177"/><path d="M91.82 58.862h-.462c-.198 0-.358-.108-.358-.242v-.274c0-.134.16-.242.358-.242h.463c-.198 0-.359.108-.359.242v.274c0 .134.16.242.359.242Z" fill="#42474C"/><path d="M105 30h20c1.1 0 2-.9 2-2v-2c0-1.1-.9-2-2-2h-20c-1.1 0-2 .9-2 2v2c0 1.1.9 2 2 2Zm-.322 9.883h20c1.1 0 2-.9 2-2v-2c0-1.1-.9-2-2-2h-20c-1.1 0-2 .9-2 2v2c0 1.1.9 2 2 2ZM91 28h4c1.1 0 2-.9 2-2s-.9-2-2-2h-4c-1.1 0-2 .9-2 2s.9 2 2 2Z" fill="#B6BABF"/><path d="M71 62H21c-1.1 0-2-.9-2-2V22c0-1.1.9-2 2-2h50c1.1 0 2 .9 2 2v38c0 1.1-.9 2-2 2ZM56 76h4c1.1 0 2-.9 2-2v-4c0-1.1-.9-2-2-2h-4c-1.1 0-2 .9-2 2v4c0 1.1.9 2 2 2Zm-12 0h4c1.1 0 2-.9 2-2v-4c0-1.1-.9-2-2-2h-4c-1.1 0-2 .9-2 2v4c0 1.1.9 2 2 2Zm-12 0h4c1.1 0 2-.9 2-2v-4c0-1.1-.9-2-2-2h-4c-1.1 0-2 .9-2 2v4c0 1.1.9 2 2 2Z" fill="#E8E9EB"/><path d="M24 73v-2a1 1 0 0 0-1.6-.8l-1.3 1c-.5.4-.5 1.2 0 1.6l1.3 1A1 1 0 0 0 24 73Zm44-2v2a1 1 0 0 0 1.6.8l1.3-1c.5-.4.5-1.2 0-1.6l-1.3-1a1 1 0 0 0-1.6.8Z" fill="#B6BABF"/><path d="M19 48v12c0 1.1.9 2 2 2h50c1.1 0 2-.9 2-2V48H19Z" fill="#E8E9EB"/><path d="M54 54H38v2h16v-2Z" fill="#975D48"/><path d="M35 62h2l5-16h-2l-5 16Z" fill="#975D48"/><path d="M55 62h2l-5-16h-2l5 16Zm-8-16h-2v16h2V46Z" fill="#BF8563"/><path d="M43.4 31.3c-2.8-2.7-7.4-2.1-9.4 1.2l-1.9 3.1c-.1.2-.2.5-.2.8 0 .9.7 1.6 1.6 1.6h7.4v10h14.3c1.9 0 3.3-1.7 2.9-3.6l-.8-4C57 39 55.8 38 54.4 38H54c-2.3 0-4.9-1.1-6-2.2l-4.6-4.5Z" fill="#fff"/><path d="M49.3 47c-1.4 0-2.7-1-2.9-2.4l-.8-4.2c-.3-1.4-1.5-2.4-2.9-2.4H33v4c0 3.3 2.7 6 6 6h16.3c.9 0 1.7-.4 2.2-1h-8.2Z" fill="#D2D5D9"/><path fill-rule="evenodd" clip-rule="evenodd" d="M19 89.53A2.53 2.53 0 0 1 21.53 87h27.834a2.53 2.53 0 1 1 0 5.06H21.53A2.53 2.53 0 0 1 19 89.53Z" fill="#E8E9EB"/><path d="M28.41 115.724h-1.117l-.57-3.396h1.116l.05.3.52 3.096Z" fill="#D2D5D9"/><path d="M45.72 124.335h-.993l-.674-4.019h.992l.674 4.019Z" fill="#50372E"/><path d="M36.398 111.435h-8.709L26.274 103h8.079c.363 0 .674.263.734.621l1.31 7.814Z" fill="#F0F1F2"/><path d="M27.69 111.435h-1.116l-1.27-7.567a.744.744 0 0 1 .734-.868h.236l1.415 8.435Z" fill="#E8E9EB"/><path d="m47.384 112.334-3.234 2.65.124.74h-2.342l4.143-3.395h-6.108v-.893h7.417v.898Zm-10.364 8.722-4.002 3.279h-1.315l4.904-4.019h.288l.125.74Z" fill="#50372E"/><path d="m36.836 114.046-.872.715-1.175.963h-6.38l-.57-3.396h8.709l.288 1.718Zm10.548 2.423v3.849h-8.181v-4.593h7.436c.411 0 .745.333.745.744Z" fill="#E8E9EB"/><path d="M39.203 115.725v4.592h-1.595l-.77-4.592h2.365Zm-2.588 4.592H30.22l5.623-4.608.773 4.608Zm-1.827-4.592-5.61 4.593h-1.114l-.771-4.593h7.495Z" fill="#D2D5D9"/><path d="m39.967 112.329-3.252 2.665 1.567 9.342h-.992l-1.445-8.612-.002-.015-.019.015-10.51 8.612H24l14.652-12.007H24.958v-.893h15.01v.893Z" fill="#975D48"/><path fill-rule="evenodd" clip-rule="evenodd" d="M83.444 101.854h.018v.292h-.018v-.292Z" fill="#50372E"/><path d="M83.444 103.766v13.427h-15.87v-13.427c0-.874.82-1.504 1.66-1.311 2.01.489 4.107.734 6.275.734 2.167 0 4.265-.262 6.275-.734a1.347 1.347 0 0 1 1.66 1.311Z" fill="#50372E"/><path d="M81.347 109.849v5.822H69.688v-5.822a5.82 5.82 0 0 1 5.82-5.822c3.217 0 5.839 2.588 5.839 5.822Z" fill="#AF5947"/><path d="M81.452 119.482H69.513l-.157 1.277h12.27l-.174-1.277Z" fill="#DEAC90"/><path d="M82.772 126.773a.424.424 0 0 0 .42-.49l-1.154-6.818h-.804l1.136 6.941c.035.227.21.367.402.367Zm-14.315 0c.21 0 .384-.158.42-.35l1.136-6.941h-.805l-1.153 6.819c-.053.244.14.472.402.472Z" fill="#DEAC90"/><path d="M85 111.16v4.126a4.767 4.767 0 0 1-4.772 4.773h-9.456A4.767 4.767 0 0 1 66 115.286v-4.265c0-.49.402-.892.891-.892 1.224 0 2.203.979 2.203 2.203v2.552c0 .42.35.769.769.769h11.309c.42 0 .77-.349.77-.769v-2.412c0-1.224.978-2.203 2.202-2.203.454 0 .856.402.856.891Z" fill="#975D48"/><path d="M81.941 119.745a4.746 4.746 0 0 1-1.73.315h-9.457a5.132 5.132 0 0 1-1.73-.315l.664-4.091c.035 0 .087.018.123.018H81.12c.052 0 .122 0 .174-.018l.647 4.091Z" fill="#50372E"/><path d="M81.4 117.193H69.635a.682.682 0 0 1-.682-.682v-.175c0-.367.297-.682.682-.682h11.763c.367 0 .682.298.682.682v.175c-.017.385-.315.682-.682.682Z" fill="#DEAC90"/><path d="M116.465 112.312h-3.542a6.373 6.373 0 0 1-6.192-4.875l-.668-2.741a2.178 2.178 0 0 1 2.113-2.696h13.038a2.178 2.178 0 0 1 2.113 2.696l-.667 2.744a6.38 6.38 0 0 1-6.195 4.872Z" fill="#F0F1F2"/><path d="M113.131 110.262h3.126c2.595 0 4.853-.591 5.469-3.389l.589-2.684c.182-.829-.097-1.639-.63-2.138a2.18 2.18 0 0 1 1.642 2.645l-.667 2.744a6.38 6.38 0 0 1-6.195 4.872h-3.542a6.373 6.373 0 0 1-6.192-4.875l-.668-2.741a2.18 2.18 0 0 1 1.642-2.645c-.533.499-.812 1.309-.63 2.138l.59 2.682c.613 2.8 2.871 3.391 5.466 3.391Z" fill="#D2D5D9"/><path d="M121.781 111.882c.821-.083 1.15.835.404 1.129-1.937.763-4.578 1.507-7.49 1.507-2.911 0-5.55-.744-7.49-1.507-.745-.294-.419-1.212.404-1.129 1.895.191 4.373.37 7.086.37 2.714 0 5.191-.176 7.086-.37Z" fill="#BF8563"/><path d="M120.261 126.087h-.576l-2.548-11.975 1.286-.401 1.838 12.376Zm-11.116 0h.558l2.55-11.975-1.285-.401-1.823 12.376Z" fill="#975D48"/><path d="M111.948 115.387h-1.225l.245-1.676 1.285.367-.305 1.309Zm5.494 0h1.225l-.244-1.676-1.285.367.304 1.309Z" fill="#6D493C"/><path d="M107.477 126.088h.795l3.28-12.321-1.654-.415-2.421 12.736Zm14.434 0h-.795l-3.281-12.321 1.654-.415 2.422 12.736Z" fill="#BF8563"/><path d="M119.517 118.58v-2.334c-.961.43-2.761.719-4.824.719-2.064 0-3.863-.289-4.825-.719v2.334c.962-.43 2.761-.719 4.825-.719 2.065.002 3.865.291 4.824.719Z" fill="#BF8563"/><path d="M122.331 112.329c-1.976.762-4.669 1.507-7.636 1.507-2.967 0-5.66-.745-7.636-1.507a.778.778 0 0 1-.198-.11c-.153.271-.073.631.344.794 1.938.763 4.578 1.507 7.49 1.507s5.55-.744 7.488-1.507c.416-.163.497-.523.344-.794a.805.805 0 0 1-.196.11Z" fill="#975D48"/><path d="M109.558 115.389h1.563l.432-1.621-1.59-.399h-.067l-.338 2.02Zm10.272 0h-1.563l-.432-1.621 1.59-.399h.067l.338 2.02Zm-9.513 3.021c1.004-.583 2.69-.918 4.374-.918 1.685.002 3.372.422 4.398.932-1.187-.2-2.747-.559-4.398-.561-1.65 0-3.186.346-4.374.547Z" fill="#975D48"/><path d="M108 51.6a.4.4 0 0 0-.4.4v1.6H106a.4.4 0 1 0 0 .8h1.6V56a.4.4 0 1 0 .8 0v-1.6h1.6a.4.4 0 1 0 0-.8h-1.6V52a.4.4 0 0 0-.4-.4Z" fill="#5C5F62"/><defs><filter id="a" x="4" y="7" width="140" height="135" filterUnits="userSpaceOnUse" color-interpolation-filters="sRGB"><feFlood flood-opacity="0" result="BackgroundImageFix"/><feColorMatrix in="SourceAlpha" values="0 0 0 0 0 0 0 0 0 0 0 0 0 0 0 0 0 0 127 0" result="hardAlpha"/><feOffset dy="1"/><feGaussianBlur stdDeviation="2.5"/><feColorMatrix values="0 0 0 0 0 0 0 0 0 0 0 0 0 0 0 0 0 0 0.3 0"/><feBlend in2="BackgroundImageFix" result="effect1_dropShadow_7466_173402"/><feBlend in="SourceGraphic" in2="effect1_dropShadow_7466_173402" result="shape"/></filter></defs></svg>